<svg width="144" height="140" viewBox="0 0 144 140" fill="none" xmlns="http://www.w3.org/2000/svg">
<path d="M24.4353 29L26.5153 16.08L18.0753 0.799998H23.6753L29.4753 11.52L38.7153 0.799998H44.8353L31.6353 16L29.5553 29H24.4353ZM48.2816 29.4C45.4016 29.4 43.1482 28.6 41.5216 27C39.8949 25.4 39.0816 23.2533 39.0816 20.56C39.0816 18.2133 39.5616 16.1867 40.5216 14.48C41.5082 12.7467 42.8282 11.4133 44.4816 10.48C46.1349 9.52 47.9616 9.04 49.9616 9.04C52.8416 9.04 55.0949 9.84 56.7216 11.44C58.3482 13.04 59.1616 15.1867 59.1616 17.88C59.1616 20.2267 58.6682 22.2667 57.6816 24C56.7216 25.7067 55.4149 27.04 53.7616 28C52.1349 28.9333 50.3082 29.4 48.2816 29.4ZM48.4016 25.6C49.6282 25.6 50.6549 25.2533 51.4816 24.56C52.3349 23.8667 52.9882 22.92 53.4416 21.72C53.8949 20.52 54.1216 19.1867 54.1216 17.72C54.1216 16.1467 53.7349 14.9467 52.9616 14.12C52.2149 13.2667 51.1749 12.84 49.8416 12.84C48.6416 12.84 47.6149 13.1867 46.7616 13.88C45.9082 14.5733 45.2549 15.52 44.8016 16.72C44.3482 17.8933 44.1216 19.2267 44.1216 20.72C44.1216 22.2933 44.4949 23.5067 45.2416 24.36C46.0149 25.1867 47.0682 25.6 48.4016 25.6ZM68.6484 29.4C66.5418 29.4 64.9284 28.7333 63.8084 27.4C62.7151 26.0667 62.3951 23.9733 62.8484 21.12L64.6884 9.44H69.6884L67.8484 21.08C67.3684 23.9867 68.3018 25.44 70.6484 25.44C72.1418 25.44 73.3551 24.9467 74.2884 23.96C75.2218 22.9733 75.8218 21.6267 76.0884 19.92L77.7284 9.44H82.7284L79.6484 29H74.7684L75.2484 25.92C74.5284 27.04 73.5951 27.9067 72.4484 28.52C71.3284 29.1067 70.0618 29.4 68.6484 29.4ZM89.8525 11.64L88.0525 9.72C88.7725 9.08 89.3192 8.50667 89.6925 8C90.0925 7.46667 90.3992 6.90667 90.6125 6.32H88.0125L88.8925 0.799998H94.4925L93.8525 4.88C93.6392 6.24 93.2525 7.44 92.6925 8.48C92.1592 9.49333 91.2125 10.5467 89.8525 11.64ZM94.7744 29L97.8944 9.44H102.774L102.254 12.72C102.841 11.6533 103.668 10.8 104.734 10.16C105.801 9.52 107.081 9.14667 108.574 9.04L110.294 8.92L110.174 13.16L106.934 13.48C105.148 13.64 103.854 14.16 103.054 15.04C102.254 15.92 101.721 17.1867 101.454 18.84L99.8544 29H94.7744ZM120.286 29.4C118.313 29.4 116.593 29.04 115.126 28.32C113.686 27.5733 112.566 26.5333 111.766 25.2C110.966 23.8667 110.566 22.3067 110.566 20.52C110.566 18.3333 111.019 16.3867 111.926 14.68C112.859 12.9467 114.139 11.5733 115.766 10.56C117.393 9.54667 119.259 9.04 121.366 9.04C123.499 9.04 125.193 9.52 126.446 10.48C127.699 11.4133 128.553 12.6667 129.006 14.24C129.486 15.7867 129.619 17.48 129.406 19.32L129.286 20.36H115.246C115.193 21.9867 115.646 23.2667 116.606 24.2C117.566 25.1333 118.939 25.6 120.726 25.6C121.899 25.6 123.006 25.44 124.046 25.12C125.113 24.7733 126.059 24.2667 126.886 23.6L128.126 26.88C127.193 27.68 126.019 28.3067 124.606 28.76C123.219 29.1867 121.779 29.4 120.286 29.4ZM121.326 12.44C120.206 12.44 119.259 12.68 118.486 13.16C117.713 13.6133 117.099 14.2267 116.646 15C116.193 15.7733 115.859 16.6 115.646 17.48H125.566C125.673 16.04 125.393 14.84 124.726 13.88C124.059 12.92 122.926 12.44 121.326 12.44ZM44.8389 84.4C42.5722 84.4 40.9456 83.7733 39.9589 82.52C38.9722 81.24 38.6656 79.3867 39.0389 76.96L42.3989 55.8H47.3989L44.0389 76.92C43.8522 78.0933 43.9589 78.96 44.3589 79.52C44.7856 80.0533 45.5056 80.32 46.5189 80.32C46.8122 80.32 47.1056 80.3067 47.3989 80.28C47.6922 80.2267 47.9856 80.1867 48.2789 80.16L47.5989 84.04C46.7989 84.28 45.8789 84.4 44.8389 84.4ZM50.7723 84L53.8923 64.44H58.7723L58.2523 67.52C59.0257 66.3467 59.959 65.48 61.0523 64.92C62.1457 64.3333 63.3057 64.04 64.5323 64.04C67.3057 64.04 69.1057 65.32 69.9323 67.88C71.3723 65.32 73.6657 64.04 76.8123 64.04C78.8657 64.04 80.4257 64.7067 81.4923 66.04C82.5857 67.3467 82.9057 69.4267 82.4523 72.28L80.6123 84H75.6123L77.4523 72.24C77.9057 69.3867 77.039 67.96 74.8523 67.96C73.519 67.96 72.4257 68.4533 71.5723 69.44C70.719 70.4 70.1457 71.7467 69.8523 73.48L68.1723 84H63.1723L65.0523 72.24C65.5057 69.3867 64.639 67.96 62.4523 67.96C61.1457 67.96 60.0523 68.4533 59.1723 69.44C58.319 70.4 57.7457 71.7467 57.4523 73.48L55.7723 84H50.7723ZM95.4105 84.4C92.5305 84.4 90.2771 83.6 88.6505 82C87.0238 80.4 86.2105 78.2533 86.2105 75.56C86.2105 73.2133 86.6905 71.1867 87.6505 69.48C88.6371 67.7467 89.9571 66.4133 91.6105 65.48C93.2638 64.52 95.0905 64.04 97.0905 64.04C99.9705 64.04 102.224 64.84 103.85 66.44C105.477 68.04 106.29 70.1867 106.29 72.88C106.29 75.2267 105.797 77.2667 104.81 79C103.85 80.7067 102.544 82.04 100.89 83C99.2638 83.9333 97.4371 84.4 95.4105 84.4ZM95.5305 80.6C96.7571 80.6 97.7838 80.2533 98.6105 79.56C99.4638 78.8667 100.117 77.92 100.57 76.72C101.024 75.52 101.25 74.1867 101.25 72.72C101.25 71.1467 100.864 69.9467 100.09 69.12C99.3438 68.2667 98.3038 67.84 96.9705 67.84C95.7705 67.84 94.7438 68.1867 93.8905 68.88C93.0371 69.5733 92.3838 70.52 91.9305 71.72C91.4771 72.8933 91.2505 74.2267 91.2505 75.72C91.2505 77.2933 91.6238 78.5067 92.3705 79.36C93.1438 80.1867 94.1971 80.6 95.5305 80.6ZM116.817 84.4C115.164 84.4 113.604 84.2 112.137 83.8C110.697 83.3733 109.484 82.7867 108.497 82.04L110.057 78.8C111.017 79.4667 112.084 79.9867 113.257 80.36C114.457 80.7067 115.644 80.88 116.817 80.88C118.071 80.88 119.031 80.6533 119.697 80.2C120.364 79.72 120.697 79.0933 120.697 78.32C120.697 77.28 119.977 76.6 118.537 76.28L114.857 75.52C113.391 75.2267 112.244 74.6533 111.417 73.8C110.591 72.92 110.177 71.8267 110.177 70.52C110.177 69.32 110.511 68.24 111.177 67.28C111.871 66.2933 112.871 65.5067 114.177 64.92C115.511 64.3333 117.111 64.04 118.977 64.04C120.257 64.04 121.537 64.24 122.817 64.64C124.124 65.0133 125.217 65.5733 126.097 66.32L124.617 69.52C123.791 68.8533 122.871 68.36 121.857 68.04C120.844 67.72 119.804 67.56 118.737 67.56C117.431 67.56 116.431 67.8133 115.737 68.32C115.044 68.8 114.697 69.44 114.697 70.24C114.697 70.72 114.844 71.1333 115.137 71.48C115.457 71.8267 115.951 72.0667 116.617 72.2L120.297 72.96C123.577 73.6533 125.217 75.32 125.217 77.96C125.217 80.0133 124.444 81.6 122.897 82.72C121.377 83.84 119.351 84.4 116.817 84.4ZM137.433 84.4C134.82 84.4 132.927 83.6933 131.753 82.28C130.58 80.84 130.167 78.9867 130.513 76.72L131.873 68.2H128.113L128.713 64.44H132.473L133.393 58.6H138.393L137.473 64.44H143.393L142.793 68.2H136.873L135.553 76.4C135.34 77.7867 135.5 78.7867 136.033 79.4C136.593 79.9867 137.447 80.28 138.593 80.28C138.993 80.28 139.38 80.24 139.753 80.16C140.127 80.08 140.487 79.9867 140.833 79.88L141.113 83.64C140.687 83.88 140.127 84.0667 139.433 84.2C138.74 84.3333 138.073 84.4 137.433 84.4ZM30.0895 139.4C27.4762 139.4 25.5829 138.693 24.4095 137.28C23.2362 135.84 22.8229 133.987 23.1695 131.72L24.5295 123.2H20.7695L21.3695 119.44H25.1295L26.0495 113.6H31.0495L30.1295 119.44H36.0495L35.4495 123.2H29.5295L28.2095 131.4C27.9962 132.787 28.1562 133.787 28.6895 134.4C29.2495 134.987 30.1029 135.28 31.2495 135.28C31.6495 135.28 32.0362 135.24 32.4095 135.16C32.7829 135.08 33.1429 134.987 33.4895 134.88L33.7695 138.64C33.3429 138.88 32.7829 139.067 32.0895 139.2C31.3962 139.333 30.7295 139.4 30.0895 139.4ZM36.1611 139L40.6411 110.8H45.6411L43.8011 122.32C45.2678 120.133 47.4811 119.04 50.4411 119.04C52.5744 119.04 54.2011 119.707 55.3211 121.04C56.4411 122.347 56.7744 124.427 56.3211 127.28L54.4811 139H49.4811L51.3211 127.36C51.8011 124.427 50.8411 122.96 48.4411 122.96C46.8678 122.96 45.6011 123.453 44.6411 124.44C43.7078 125.427 43.1078 126.773 42.8411 128.48L41.1611 139H36.1611ZM69.7195 139.4C67.7462 139.4 66.0262 139.04 64.5595 138.32C63.1195 137.573 61.9995 136.533 61.1995 135.2C60.3995 133.867 59.9995 132.307 59.9995 130.52C59.9995 128.333 60.4529 126.387 61.3595 124.68C62.2929 122.947 63.5729 121.573 65.1995 120.56C66.8262 119.547 68.6929 119.04 70.7995 119.04C72.9329 119.04 74.6262 119.52 75.8795 120.48C77.1329 121.413 77.9862 122.667 78.4395 124.24C78.9195 125.787 79.0529 127.48 78.8395 129.32L78.7195 130.36H64.6795C64.6262 131.987 65.0795 133.267 66.0395 134.2C66.9995 135.133 68.3729 135.6 70.1595 135.6C71.3329 135.6 72.4395 135.44 73.4795 135.12C74.5462 134.773 75.4929 134.267 76.3195 133.6L77.5595 136.88C76.6262 137.68 75.4529 138.307 74.0395 138.76C72.6529 139.187 71.2129 139.4 69.7195 139.4ZM70.7595 122.44C69.6395 122.44 68.6929 122.68 67.9195 123.16C67.1462 123.613 66.5329 124.227 66.0795 125C65.6262 125.773 65.2929 126.6 65.0795 127.48H74.9995C75.1062 126.04 74.8262 124.84 74.1595 123.88C73.4929 122.92 72.3595 122.44 70.7595 122.44ZM81.2783 139L84.3983 119.44H89.2783L88.7583 122.72C89.3449 121.653 90.1716 120.8 91.2383 120.16C92.3049 119.52 93.5849 119.147 95.0783 119.04L96.7983 118.92L96.6783 123.16L93.4383 123.48C91.6516 123.64 90.3583 124.16 89.5583 125.04C88.7583 125.92 88.2249 127.187 87.9583 128.84L86.3583 139H81.2783ZM106.79 139.4C104.817 139.4 103.097 139.04 101.63 138.32C100.19 137.573 99.0698 136.533 98.2698 135.2C97.4698 133.867 97.0698 132.307 97.0698 130.52C97.0698 128.333 97.5232 126.387 98.4298 124.68C99.3632 122.947 100.643 121.573 102.27 120.56C103.897 119.547 105.763 119.04 107.87 119.04C110.003 119.04 111.697 119.52 112.95 120.48C114.203 121.413 115.057 122.667 115.51 124.24C115.99 125.787 116.123 127.48 115.91 129.32L115.79 130.36H101.75C101.697 131.987 102.15 133.267 103.11 134.2C104.07 135.133 105.443 135.6 107.23 135.6C108.403 135.6 109.51 135.44 110.55 135.12C111.617 134.773 112.563 134.267 113.39 133.6L114.63 136.88C113.697 137.68 112.523 138.307 111.11 138.76C109.723 139.187 108.283 139.4 106.79 139.4ZM107.83 122.44C106.71 122.44 105.763 122.68 104.99 123.16C104.217 123.613 103.603 124.227 103.15 125C102.697 125.773 102.363 126.6 102.15 127.48H112.07C112.177 126.04 111.897 124.84 111.23 123.88C110.563 122.92 109.43 122.44 107.83 122.44ZM120.549 130.48L122.109 110.8H128.269L123.589 130.48H120.549ZM117.949 139L118.829 133.44H124.429L123.549 139H117.949Z" fill="#E1E1E1"/>
<path d="M39 83.9781L19.5 38L-9.57487e-10 83.9781L15.1667 84L19.5 51.1429L23.8333 84L39 83.9781Z" fill="white"/>
</svg>
